<svg width="60" height="60" viewBox="0 0 60 60" xmlns="http://www.w3.org/2000/svg"><title>pencil</title><g fill="none" fill-rule="evenodd"><path d="M.03 59.97L5.2 39.283l31.472-31.47L52.185 23.33l-31.47 31.47L.032 59.97zm8.734-18.667L5.452 54.548l13.245-3.312 27.91-27.908-9.935-9.936-27.908 27.91z" fill="#627CA3"/><path d="M17.27 53.626c-1.34-5.38-5.516-9.556-10.896-10.896l.957-3.828c6.797 1.694 12.074 6.97 13.768 13.767l-3.828.956" fill="#627CA3"/><path fill="#627CA3" d="M16.86 45.93l-2.79-2.79 27.57-27.57 2.79 2.79-27.57 27.57"/><path d="M.74 59.26l6.156-1.54c-.57-2.27-2.346-4.047-4.617-4.616L.74 59.26" fill="#FFC700"/><path d="M53.638 21.875L38.125 6.362l6.18-6.18.965.13c7.49 1 13.42 6.928 14.418 14.418l.13.965-6.18 6.18zM43.703 6.362l9.935 9.935 1.98-1.98c-1.043-4.975-4.96-8.892-9.935-9.936l-1.98 1.982z" fill="#627CA3"/></g></svg>