<svg width="674" height="154" viewBox="0 0 674 154" xmlns="http://www.w3.org/2000/svg"><title>Logo Outlined</title><g fill="none" fill-rule="evenodd"><path fill="#FFF6D7" d="M10.797 5.668h142.605V32.01H10.797z"/><path d="M157.476 28.972H18.923c-2.81 0-5.093-2.286-5.093-5.096V15.83c0-2.823 2.27-5.096 5.093-5.096h138.553c2.8 0 5.07-2.268 5.07-5.066s-2.27-5.066-5.07-5.066H18.923C10.496.602 3.69 7.416 3.69 15.83v8.046c0 8.403 6.822 15.228 15.233 15.228h138.553c2.8 0 5.07-2.268 5.07-5.066s-2.27-5.066-5.07-5.066z" fill="#203D6A" fill-rule="nonzero"/><g fill-rule="nonzero" fill="#E1CA7C"><path d="M23.124 15.462h123.414v-1.688H23.124M23.124 18.84h123.414v-1.69H23.124M23.124 22.217h123.414v-1.69H23.124M23.124 25.594h123.414v-1.688H23.124"/></g><g><path fill="#FFF6D7" d="M165.58 69.162H8.75V42.82h156.83z"/><path d="M5.38 44.17h152.087c3.732 0 6.77 3.032 6.77 6.744v10.153c0 3.737-3.01 6.744-6.77 6.744H5.38C3.513 67.81 2 69.324 2 71.19c0 1.864 1.513 3.376 3.38 3.376h152.087c7.495 0 13.53-6.032 13.53-13.5V50.915c0-7.443-6.065-13.5-13.53-13.5H5.38c-1.867 0-3.38 1.513-3.38 3.378 0 1.866 1.513 3.378 3.38 3.378z" fill="#FFA900" fill-rule="nonzero"/><path fill="#E1CA7C" fill-rule="nonzero" d="M23.124 52.613H146.49v-1.688H23.125M23.124 55.99H146.49v-1.688H23.125M23.124 59.368H146.49v-1.69H23.125M23.124 62.745H146.49v-1.688H23.125"/></g><g><path fill="#FFF6D7" d="M171.3 127.194H9.99v-45.83H171.3z"/><path fill="#51546F" d="M171.3 125.078h-14.596v-45.83H171.3z"/><path d="M5.38 84.316h151.323c6.53 0 11.83 5.294 11.83 11.803v12.09c0 6.52-5.288 11.802-11.83 11.802H5.38c-2.8 0-5.07 2.27-5.07 5.066 0 2.798 2.27 5.067 5.07 5.067h151.323c12.14 0 21.97-9.817 21.97-21.936V96.12c0-12.106-9.842-21.937-21.97-21.937H5.38c-2.8 0-5.07 2.27-5.07 5.066 0 2.797 2.27 5.066 5.07 5.066z" fill="#1B2157" fill-rule="nonzero"/><g fill-rule="nonzero" fill="#E1CA7C"><path d="M23.124 103.274H146.49v-1.69H23.125M23.124 106.65H146.49v-1.688H23.125M23.124 110.028H146.49v-1.688H23.125M23.124 113.406H146.49v-1.69H23.125M23.124 116.783H146.49v-1.69H23.125M23.124 89.764H146.49v-1.69H23.125M23.124 93.142H146.49v-1.69H23.125M23.124 96.52H146.49v-1.69H23.125M23.124 99.896H146.49v-1.688H23.125"/></g></g><g><path d="M191.706 43.94V29.573h3.718c1.033 4.294 2.583 7.36 4.648 9.196 2.066 1.837 4.297 2.755 6.693 2.755 1.777 0 3.192-.526 4.246-1.58 1.054-1.052 1.58-2.29 1.58-3.715 0-1.01-.33-2.022-.99-3.034-.662-1.01-2.232-2.136-4.71-3.375-4.773-2.373-7.995-4.112-9.668-5.216-1.674-1.104-3.016-2.524-4.03-4.257-1.01-1.734-1.517-3.726-1.517-5.976 0-3.612 1.296-6.59 3.89-8.932 2.59-2.343 5.592-3.514 9-3.514 3.574 0 6.61 1.197 9.11 3.59.413-.618.754-1.567 1.023-2.847h3.563v12.385h-3.47c-.62-2.745-1.796-5.006-3.532-6.78-1.735-1.776-3.687-2.664-5.856-2.664-1.632 0-2.928.454-3.89 1.363-.96.91-1.44 2.044-1.44 3.407 0 1.052.31 2.028.93 2.926.62.897 1.456 1.64 2.51 2.23 1.053.587 3.284 1.676 6.693 3.265 3.057 1.445 5.32 2.735 6.786 3.87 1.468 1.136 2.63 2.566 3.487 4.29.857 1.723 1.286 3.586 1.286 5.588 0 3.715-1.374 6.806-4.12 9.273-2.75 2.466-6.023 3.7-9.824 3.7-2.17 0-4.293-.455-6.37-1.363-2.075-.908-3.733-2.116-4.972-3.623-.475.93-.826 2.064-1.054 3.406h-3.718zm49.544-16.38v9.754c0 1.548.247 2.61.743 3.19.496.577 1.54.866 3.13.866v3.282h-18.685V41.37h.806c1.776 0 2.892-.304 3.346-.913.455-.61.682-1.657.682-3.143v-8.67c0-1.568-.248-2.647-.744-3.235-.495-.59-1.663-.883-3.5-.883v-3.283l13.695-2.26c.35.908.527 2.25.527 4.025 1.404-1.59 3-2.777 4.787-3.56 1.787-.786 3.754-1.178 5.903-1.178 2.355 0 4.29.45 5.81 1.347 1.518.897 2.618 2.254 3.3 4.07 1.3-1.816 2.83-3.173 4.586-4.07 1.756-.9 3.75-1.348 5.98-1.348 1.838 0 3.512.335 5.02 1.006 1.508.67 2.654 1.507 3.44 2.508.784 1 1.306 2.003 1.564 3.004.258 1 .387 2.45.387 4.35v8.174c0 1.61.264 2.69.79 3.236.527.547 1.772.82 3.734.82v3.282h-18.343V41.37c1.59 0 2.62-.3 3.084-.898.465-.598.698-1.65.698-3.158v-8.886c0-1.734-.32-3.035-.96-3.9-.64-.868-1.612-1.302-2.913-1.302-1.22 0-2.366.36-3.44 1.084-1.074.722-2.076 1.806-3.006 3.25v9.754c0 1.528.247 2.586.743 3.174.496.588 1.54.882 3.13.882v3.282h-17.63V41.37c1.527-.02 2.53-.32 3.004-.898.475-.578.713-1.63.713-3.158V28.49c0-1.714-.315-2.998-.945-3.855-.63-.857-1.586-1.285-2.866-1.285-1.117 0-2.222.35-3.317 1.053-1.095.702-2.18 1.754-3.253 3.158zm67.08 14.4c-1.507 1.093-3.082 1.913-4.724 2.46-1.643.547-3.362.82-5.16.82-2.375 0-4.157-.536-5.345-1.61-1.186-1.073-1.78-2.404-1.78-3.994 0-2.25 1.187-4.242 3.563-5.975 2.376-1.733 6.672-3.653 12.89-5.76v-2.29c0-1.63-.392-2.678-1.177-3.142-.785-.465-1.715-.697-2.79-.697-2.602 0-4.048.95-4.337 2.85-.208 1.3-.62 2.244-1.24 2.833-.62.588-1.58.882-2.882.882-1.178 0-2.112-.315-2.804-.944-.692-.63-1.038-1.367-1.038-2.213 0-1.92 1.27-3.55 3.81-4.892 2.542-1.342 5.94-2.013 10.195-2.013 2.377 0 4.365.145 5.966.434 1.6.29 2.892.825 3.873 1.61.98.784 1.63 1.61 1.952 2.477.32.867.48 2.043.48 3.53v11.765c0 1.775.537 2.663 1.61 2.663.93 0 1.52-.577 1.767-1.733h2.57c-.06 2.126-.84 3.695-2.338 4.706-1.498 1.012-3.29 1.518-5.376 1.518-3.8 0-6.363-1.093-7.685-3.28zm-.557-3.345V31.37c-2.87 1.197-4.746 2.28-5.624 3.25-.88.97-1.318 1.972-1.318 3.004 0 .784.26 1.49.775 2.12.516.63 1.198.945 2.045.945.744 0 1.456-.176 2.138-.527.682-.35 1.343-.867 1.983-1.548zM341.08 24.65c1.198-2.126 2.56-3.72 4.09-4.783 1.53-1.063 3.212-1.595 5.05-1.595 1.757 0 3.09.552 3.998 1.657.91 1.103 1.363 2.305 1.363 3.606 0 1.218-.36 2.26-1.083 3.127s-1.735 1.3-3.037 1.3c-.702 0-1.28-.134-1.735-.402-.454-.267-1.053-.825-1.797-1.67-.744-.827-1.55-1.24-2.417-1.24-1.342 0-2.35.82-3.02 2.462-.672 1.64-1.007 4.102-1.007 7.385v2.755c0 1.528.237 2.596.712 3.205.476.61 1.57.913 3.285.913h.62v3.282h-18.81V41.37c1.798 0 2.934-.3 3.41-.898.475-.598.712-1.672.712-3.22v-8.855c0-1.57-.242-2.647-.728-3.236-.485-.587-1.637-.88-3.455-.88v-3.283l12.858-2.725c.58 1.672.91 3.798.992 6.378zm31.138-2.012v13.22c0 2.21.144 3.67.433 4.382.29.712.89 1.068 1.8 1.068 1.362 0 2.457-.846 3.283-2.54l3.037 1.023c-1.57 3.923-4.927 5.884-10.07 5.884-2.83 0-4.96-.686-6.384-2.06-1.425-1.372-2.138-3.43-2.138-6.176v-14.8h-3.687v-3.344l.775.03c2.5 0 4.638-.794 6.414-2.383 1.776-1.59 2.85-3.612 3.222-6.068h3.316v8.422h7.622v3.344h-7.622zM403.29 43.94V29.573h3.718c1.033 4.294 2.582 7.36 4.648 9.196 2.066 1.837 4.297 2.755 6.693 2.755 1.776 0 3.19-.526 4.244-1.58 1.054-1.052 1.58-2.29 1.58-3.715 0-1.01-.33-2.022-.99-3.034-.662-1.01-2.232-2.136-4.71-3.375-4.773-2.373-7.995-4.112-9.67-5.216-1.672-1.104-3.015-2.524-4.027-4.257-1.012-1.734-1.518-3.726-1.518-5.976 0-3.612 1.295-6.59 3.888-8.932 2.592-2.343 5.593-3.514 9-3.514 3.575 0 6.61 1.197 9.11 3.59.414-.618.755-1.567 1.023-2.847h3.565v12.385h-3.47c-.62-2.745-1.798-5.006-3.533-6.78-1.735-1.776-3.687-2.664-5.856-2.664-1.632 0-2.93.454-3.89 1.363-.96.91-1.44 2.044-1.44 3.407 0 1.052.31 2.028.93 2.926.62.897 1.456 1.64 2.51 2.23 1.053.587 3.284 1.676 6.692 3.265 3.058 1.445 5.32 2.735 6.786 3.87 1.467 1.136 2.63 2.566 3.486 4.29.858 1.723 1.286 3.586 1.286 5.588 0 3.715-1.373 6.806-4.12 9.273-2.748 2.466-6.022 3.7-9.823 3.7-2.17 0-4.292-.455-6.368-1.363-2.076-.908-3.734-2.116-4.973-3.623-.476.93-.827 2.064-1.054 3.406h-3.718zm48.923-21.302v13.22c0 2.21.145 3.67.434 4.382.29.712.888 1.068 1.797 1.068 1.364 0 2.46-.846 3.285-2.54l3.036 1.023c-1.57 3.923-4.927 5.884-10.07 5.884-2.83 0-4.96-.686-6.384-2.06-1.425-1.372-2.138-3.43-2.138-6.176v-14.8h-3.687v-3.344l.774.03c2.5 0 4.64-.794 6.415-2.383 1.777-1.59 2.85-3.612 3.223-6.068h3.315v8.422h7.623v3.344h-7.623zm30.023 19.32c-1.508 1.095-3.084 1.915-4.726 2.462-1.642.547-3.362.82-5.16.82-2.375 0-4.156-.536-5.344-1.61-1.188-1.073-1.782-2.404-1.782-3.994 0-2.25 1.188-4.242 3.564-5.975 2.375-1.733 6.672-3.653 12.89-5.76v-2.29c0-1.63-.393-2.678-1.178-3.142-.785-.465-1.714-.697-2.788-.697-2.603 0-4.05.95-4.34 2.85-.205 1.3-.618 2.244-1.238 2.833-.62.588-1.58.882-2.882.882-1.177 0-2.112-.315-2.804-.944-.692-.63-1.038-1.367-1.038-2.213 0-1.92 1.27-3.55 3.81-4.892 2.542-1.342 5.94-2.013 10.196-2.013 2.375 0 4.364.145 5.965.434 1.602.29 2.893.825 3.874 1.61.98.784 1.632 1.61 1.952 2.477.32.867.48 2.043.48 3.53v11.765c0 1.775.537 2.663 1.612 2.663.93 0 1.518-.577 1.766-1.733h2.572c-.062 2.126-.842 3.695-2.34 4.706-1.498 1.012-3.29 1.518-5.376 1.518-3.8 0-6.362-1.093-7.684-3.28zm-.558-3.343V31.37c-2.872 1.197-4.746 2.28-5.624 3.25-.878.97-1.317 1.972-1.317 3.004 0 .784.258 1.49.775 2.12.516.63 1.198.945 2.045.945.743 0 1.456-.176 2.138-.527.68-.35 1.342-.867 1.983-1.548zm33.306-13.965c1.2-2.126 2.562-3.72 4.09-4.783 1.53-1.063 3.213-1.595 5.05-1.595 1.757 0 3.09.552 4 1.657.907 1.103 1.362 2.305 1.362 3.606 0 1.218-.362 2.26-1.085 3.127-.722.867-1.734 1.3-3.035 1.3-.703 0-1.28-.134-1.735-.402-.455-.267-1.054-.825-1.798-1.67-.743-.827-1.55-1.24-2.417-1.24-1.342 0-2.35.82-3.02 2.462-.672 1.64-1.008 4.102-1.008 7.385v2.755c0 1.528.238 2.596.713 3.205.475.61 1.57.913 3.284.913h.62v3.282h-18.808V41.37c1.797 0 2.933-.3 3.408-.898.475-.598.713-1.672.713-3.22v-8.855c0-1.57-.243-2.647-.728-3.236-.487-.587-1.64-.88-3.456-.88v-3.283l12.86-2.725c.577 1.672.908 3.798.99 6.378zm31.138-2.012v13.22c0 2.21.145 3.67.434 4.382.29.712.888 1.068 1.797 1.068 1.363 0 2.458-.846 3.285-2.54l3.036 1.023c-1.57 3.923-4.927 5.884-10.07 5.884-2.83 0-4.958-.686-6.383-2.06-1.425-1.372-2.137-3.43-2.137-6.176v-14.8h-3.688v-3.344l.775.03c2.5 0 4.637-.794 6.414-2.383 1.776-1.59 2.85-3.612 3.223-6.068h3.315v8.422h7.623v3.344h-7.623z" fill="#3361A9"/><path d="M217.54 62.08h-6.004c-3.582 0-6.216.387-7.902 1.16-1.686.77-3.1 2.306-4.24 4.605-1.142 2.298-1.835 5.027-2.08 8.185h-5.954V55.712h71.482V76.03h-5.952c-1.124-5.474-2.704-9.168-4.74-11.08-2.038-1.913-5.286-2.87-9.746-2.87h-6.163v50.427c0 3.264.554 5.536 1.66 6.817 1.106 1.28 3.433 1.92 6.98 1.92h1.843v5.843H207.27v-5.842h1.684c3.582 0 5.91-.658 6.98-1.974 1.07-1.315 1.607-3.57 1.607-6.763V62.08zm82.117 59.112c-2.282 2.527-4.75 4.43-7.4 5.71-2.652 1.282-5.505 1.922-8.56 1.922-3.9 0-7.437-1.087-10.615-3.263-3.178-2.175-4.767-6.333-4.767-12.474V96.558c0-2.702-.43-4.544-1.29-5.527-.86-.98-2.608-1.472-5.242-1.472v-5.58h23.546v28.16c0 2.738.42 4.703 1.264 5.896.842 1.193 2.177 1.79 4.003 1.79 1.37 0 2.81-.562 4.32-1.685 1.51-1.124 3.09-2.808 4.74-5.054V96.558c0-2.632-.412-4.456-1.238-5.474-.826-1.018-2.766-1.526-5.82-1.526v-5.58h24.125v30.53c0 2.666.412 4.5 1.237 5.5.826 1 2.8 1.5 5.926 1.5v5.58c-.948-.036-1.808-.053-2.58-.053-6.462 0-13.68.596-21.65 1.79v-7.633zm53.882-31.53v22.477c0 3.753.245 6.236.737 7.447.492 1.21 1.51 1.816 3.055 1.816 2.318 0 4.18-1.44 5.584-4.317l5.162 1.737c-2.67 6.668-8.375 10-17.12 10-4.81 0-8.428-1.165-10.85-3.5-2.424-2.332-3.636-5.833-3.636-10.5v-25.16h-6.268v-5.685l1.317.053c4.25 0 7.885-1.35 10.905-4.052 3.02-2.702 4.846-6.14 5.478-10.317h5.636V83.98h12.958v5.685h-12.96zm20.906 15.74c0-7.23 2.564-12.897 7.69-17.002 5.128-4.106 11.326-6.16 18.596-6.16 7.093 0 13.274 1.992 18.542 5.975 5.267 3.983 7.9 9.73 7.9 17.24 0 7.122-2.58 12.798-7.742 17.027-5.163 4.228-11.413 6.342-18.753 6.342-7.165 0-13.328-2.01-18.49-6.026-5.163-4.018-7.744-9.817-7.744-17.397zm18.068-.527c0 6.737.623 11.448 1.87 14.133 1.247 2.684 3.415 4.026 6.506 4.026 2.493 0 4.486-1.123 5.978-3.368 1.493-2.246 2.24-7.036 2.24-14.37 0-6.667-.668-11.185-2.002-13.554-1.335-2.37-3.442-3.553-6.322-3.553-2.282 0-4.23 1.008-5.847 3.026-1.615 2.017-2.423 6.57-2.423 13.66zm67.736-11.79c2.037-3.615 4.355-6.326 6.953-8.133 2.6-1.807 5.46-2.71 8.587-2.71 2.985 0 5.25.938 6.795 2.815s2.318 3.92 2.318 6.132c0 2.07-.615 3.842-1.844 5.316-1.23 1.473-2.95 2.21-5.163 2.21-1.194 0-2.178-.228-2.95-.684-.773-.456-1.79-1.404-3.055-2.842-1.265-1.404-2.634-2.106-4.11-2.106-2.282 0-3.994 1.395-5.135 4.185-1.14 2.79-1.712 6.973-1.712 12.553v4.684c0 2.597.404 4.413 1.212 5.448.807 1.035 2.668 1.553 5.583 1.553h1.054v5.58H436.81v-5.58c3.054 0 4.986-.51 5.794-1.527.807-1.016 1.21-2.84 1.21-5.473V99.453c0-2.667-.41-4.5-1.237-5.5-.825-1-2.783-1.5-5.873-1.5v-5.58l21.86-4.632c.984 2.843 1.546 6.458 1.686 10.844zm37.763-29.11c0-2.596.93-4.833 2.792-6.71 1.86-1.877 4.09-2.816 6.69-2.816 2.634 0 4.864.93 6.69 2.79 1.826 1.858 2.74 4.104 2.74 6.736 0 2.632-.923 4.878-2.766 6.738-1.845 1.86-4.066 2.79-6.665 2.79-2.704 0-4.96-.957-6.77-2.87-1.807-1.912-2.712-4.13-2.712-6.658zm17.752 18.266v32.267c0 2.667.422 4.5 1.264 5.5.842 1 2.81 1.5 5.9 1.5v5.58h-32.24v-5.58h1.213c2.985 0 4.872-.525 5.663-1.578.79-1.054 1.185-2.86 1.185-5.423V98.822c0-2.597-.403-4.413-1.21-5.448-.808-1.036-2.687-1.553-5.637-1.553h-1.212v-5.58l25.075-4zm38.66 15.266v17.107c0 2.456.368 4.21 1.105 5.263.738 1.053 2.054 1.597 3.95 1.632v5.58h-29.498v-5.58c3.055 0 5.004-.483 5.847-1.448.842-.965 1.263-2.78 1.263-5.447v-14.74c0-2.666-.412-4.5-1.238-5.5-.825-1-2.783-1.5-5.873-1.5v-5.58l23.388-3.84c.597 1.367.95 3.473 1.054 6.315 2.318-2.527 4.75-4.413 7.296-5.658 2.546-1.246 5.188-1.87 7.927-1.87 4.917 0 8.78 1.36 11.59 4.08 2.81 2.72 4.213 6.448 4.213 11.186v17.107c0 2.63.43 4.44 1.29 5.42.86.984 2.73 1.475 5.61 1.475v5.58h-29.34v-5.58c1.475-.07 2.713-.49 3.714-1.263 1-.772 1.5-2.65 1.5-5.632v-15.79c0-2.88-.394-4.844-1.184-5.897-.79-1.052-1.923-1.58-3.398-1.58s-2.985.51-4.53 1.528c-1.545 1.017-3.108 2.56-4.688 4.632zm58.41 14.212c-3.827-.983-6.803-2.825-8.927-5.527-2.125-2.7-3.187-5.596-3.187-8.684 0-4.948 2.143-8.712 6.427-11.29 4.284-2.58 9.798-3.87 16.54-3.87 3.723 0 6.98.378 9.772 1.132 2.79.754 5.117 1.886 6.98 3.395 3.686-3.088 6.776-4.632 9.27-4.632 3.51 0 5.267 1.703 5.267 5.107 0 2.877-1.21 4.316-3.634 4.316-.878 0-2.09-.65-3.635-1.948-.597-.49-1.16-.736-1.686-.736-.737 0-1.545.402-2.423 1.21 1.334 2.175 2 4.614 2 7.316 0 4.246-1.685 7.86-5.056 10.843-3.406 3.017-9.464 4.7-18.173 5.052-3.652.14-6.18.526-7.585 1.158-1.405.632-2.107 1.614-2.107 2.948 0 1.86 2.283 2.79 6.848 2.79.983 0 3.248-.07 6.795-.21 1.23-.036 2.477-.054 3.74-.054 7.657 0 13.188 1.193 16.594 3.58 3.407 2.386 5.11 6.228 5.11 11.527 0 5.51-2.37 9.993-7.11 13.45-4.742 3.456-11.924 5.184-21.546 5.184-9.13 0-15.364-1.158-18.7-3.474-3.336-2.316-5.004-4.93-5.004-7.843 0-1.824.605-3.316 1.817-4.474 1.213-1.158 2.61-1.737 4.19-1.737 1.263 0 2.756.404 4.476 1.21-.246.632-.44 1.238-.58 1.817-.14.58-.21 1.114-.21 1.605 0 2.457 1.23 4.3 3.688 5.527 2.458 1.228 6.145 1.842 11.062 1.842 6.11 0 10.684-.86 13.722-2.58 3.037-1.718 4.556-3.824 4.556-6.315 0-2.35-1.036-3.843-3.108-4.474-2.072-.632-6.83-.948-14.275-.948-8.146 0-13.985-.85-17.514-2.553-3.53-1.702-5.294-4.588-5.294-8.658 0-2.844.913-5.186 2.74-7.028 1.825-1.843 4.547-3.167 8.164-3.974zm4.268-14.633c0 3.368.536 5.904 1.607 7.606 1.07 1.702 2.66 2.553 4.767 2.553 2.037 0 3.564-.877 4.583-2.63 1.018-1.756 1.527-4.388 1.527-7.897 0-3.053-.614-5.264-1.843-6.632-1.23-1.37-2.704-2.053-4.425-2.053-2.073 0-3.627.755-4.663 2.264-1.036 1.51-1.554 3.773-1.554 6.79z" fill="#1C2F4C"/><path d="M657.703 84.862h1.145v5.392h2.735v1.035h-3.88V84.86zm4.968 0h1.146v5.392h2.735v1.035h-3.88V84.86zm9.385 1.507c-.237-.256-.465-.425-.686-.51-.223-.085-.445-.127-.67-.127-.332 0-.634.06-.903.177-.27.118-.5.282-.695.49-.194.21-.344.453-.45.73-.106.28-.16.58-.16.9 0 .345.054.663.16.953.106.29.256.542.45.754.194.212.425.378.695.5.27.12.57.18.904.18.26 0 .514-.06.76-.185.245-.124.473-.323.685-.595l.945.672c-.29.398-.645.69-1.063.87-.418.182-.863.273-1.335.273-.497 0-.953-.08-1.368-.24-.415-.16-.772-.388-1.072-.682-.3-.292-.534-.645-.704-1.056-.17-.412-.254-.87-.254-1.37 0-.516.084-.983.254-1.404.17-.42.404-.78.704-1.076.3-.296.657-.525 1.072-.685.415-.162.87-.242 1.368-.242.436 0 .84.077 1.213.232.372.154.72.416 1.04.785l-.89.654z" fill="#A5A5A5"/></g></g></svg>