<?xml version="1.0" encoding="UTF-8"?>
<svg width="135px" height="124px" viewBox="0 0 135 124" version="1.1" xmlns="http://www.w3.org/2000/svg" xmlns:xlink="http://www.w3.org/1999/xlink">
    <!-- Generator: Sketch 44.1 (41455) - http://www.bohemiancoding.com/sketch -->
    <title>Group 5</title>
    <desc>Created with Sketch.</desc>
    <defs></defs>
    <g id="Page-1" stroke="none" stroke-width="1" fill="none" fill-rule="evenodd">
        <g id="Services-Copy" transform="translate(-437.000000, -1856.000000)" fill="#FF9500">
            <g id="Group-5" transform="translate(438.000000, 1857.000000)">
                <rect id="Rectangle-2" x="118.779874" y="67.1616941" width="2.55023777" height="20.1569912" rx="1.27511888"></rect>
                <path d="M125.155469,86.1171934 L10.4014379,86.1171934 C7.58546579,86.1171934 5.2942936,83.8322396 5.2942936,81.0353999 L5.2942936,73.3848277 C5.2942936,70.5687877 7.56371501,68.3030341 10.4014379,68.3030341 L125.155469,68.3030341 C126.563926,68.3030341 127.705706,67.1636526 127.705706,65.7581542 C127.705706,64.3526559 126.563926,63.2132743 125.155469,63.2132743 L10.4014379,63.2132743 C4.74624554,63.2132743 0.19381807,67.7583441 0.19381807,73.3848277 L0.19381807,81.0353999 C0.19381807,86.6439369 4.76925245,91.2069532 10.4014379,91.2069532 L125.155469,91.2069532 C126.563926,91.2069532 127.705706,90.0675717 127.705706,88.6620733 C127.705706,87.256575 126.563926,86.1171934 125.155469,86.1171934 Z" id="Rectangle" stroke="#FFFFFF" stroke-width="2" fill-rule="nonzero"></path>
                <rect id="Rectangle-2" x="125.366361" y="98.7798989" width="2.63703883" height="19.0773452" rx="1.31851941"></rect>
                <path d="M130.153935,116.655752 L10.8097427,116.655752 C7.8811317,116.655752 5.49831262,114.370798 5.49831262,111.573959 L5.49831262,103.923386 C5.49831262,101.107346 7.85851088,98.8415929 10.8097427,98.8415929 L130.153935,98.8415929 C131.61873,98.8415929 132.806182,97.7022114 132.806182,96.296713 C132.806182,94.8912147 131.61873,93.7518331 130.153935,93.7518331 L10.8097427,93.7518331 C4.92834264,93.7518331 0.19381807,98.2969029 0.19381807,103.923386 L0.19381807,111.573959 C0.19381807,117.182496 4.95226983,121.745512 10.8097427,121.745512 L130.153935,121.745512 C131.61873,121.745512 132.806182,120.60613 132.806182,119.200632 C132.806182,117.795134 131.61873,116.655752 130.153935,116.655752 Z" id="Rectangle" stroke="#FFFFFF" stroke-width="2" fill-rule="nonzero"></path>
                <path d="M45.2262008,8.04880865 C54.2887472,8.04880865 58.829361,11.2657941 60.5230149,12.8612725 C60.4190341,16.7739934 61.6551723,20.1387083 64.2071087,22.8565791 C70.9256804,30.0133692 84.7787471,30.8016115 90.4233202,30.8016115 C91.4585463,30.8016115 92.0609302,30.7579961 92.0859561,30.7569409 C92.3855619,30.7425197 92.6576744,30.5620787 92.8071249,30.3028486 C92.9572802,30.0439703 92.9650347,29.7270554 92.8272161,29.4607906 C92.4105878,28.6539062 82.8224976,10.3695685 70.3211817,9.02909931 C72.4515551,8.45154737 74.9597842,8.04880865 77.8173185,8.04880865 C88.9200041,8.04880865 95.5546862,14.9878736 95.5546862,21.6961992 C95.5546862,43.7360314 87.5774177,60.3563019 76.998866,60.3563019 C67.0339774,60.3563019 61.8733558,57.2181056 61.824009,57.1875045 C61.5159438,56.9936975 61.1194067,57.0088221 60.8268504,57.226899 C60.1222481,57.7527456 56.0973087,60.374944 46.0450058,60.374944 C40.9432479,60.374944 36.247544,56.4305667 32.8228736,49.2685006 C29.3833991,42.0754816 27.4891856,32.2834789 27.4891856,21.6961992 C27.4891856,14.9878736 34.1235152,8.04880865 45.2262008,8.04880865 Z M83.7357665,24.0605744 L63.1690628,12.2112628 C65.0273236,11.2169026 66.9430383,10.7209536 68.8813115,10.7209536 C79.1859882,10.7209536 88.0663038,24.8220847 90.5629013,29.0429272 L90.4243776,29.0429272 C86.1985261,29.0429272 71.9161419,28.4952728 65.4929463,21.6543425 C63.454217,19.4827191 62.3819807,16.8151466 62.2882217,13.7346351 L82.854573,25.583595 C82.9934491,25.6637911 83.1446619,25.7014269 83.2944648,25.7014269 C83.5986528,25.7014269 83.8950863,25.5438488 84.0582833,25.2617558 C84.3018452,24.8410785 84.156977,24.3032728 83.7357665,24.0605744 Z M61.3961014,58.9634239 C62.9773151,59.7956334 68.1774141,62.1149863 76.998866,62.1149863 C82.8182678,62.1149863 88.0782881,57.8185204 91.8113762,50.0166449 C95.361881,42.5967557 97.3170732,32.5388399 97.3170732,21.6961992 C97.3170732,14.1233044 90.0232584,6.29047604 77.8173185,6.29047604 C69.9140703,6.29047604 64.5472494,9.144469 62.1634447,10.7406509 L62.1634447,1.2557145 C62.1634447,0.769965885 61.7690225,0.376372328 61.2822512,0.376372328 C60.79548,0.376372328 60.4010578,0.769965885 60.4010578,1.2557145 L60.4010578,10.4831795 C57.9051653,8.6569617 53.1431956,6.29047604 45.2262008,6.29047604 C33.0202609,6.29047604 25.7267986,14.1233044 25.7267986,21.6961992 C25.7267986,32.5402468 27.6819907,42.6009765 31.2321431,50.0257901 C34.9655837,57.8336451 40.2263089,62.1336283 46.0450058,62.1336283 C55.2968325,62.1336283 59.8603574,59.9180378 61.3961014,58.9634239 Z" id="Fill-93" stroke="#FF9500" stroke-width="1.25"></path>
            </g>
        </g>
    </g>
</svg>