<svg width="103" height="116" viewBox="0 0 103 116" xmlns="http://www.w3.org/2000/svg"><title>Beaker</title><g transform="rotate(-34 53.182 50.237)" fill="none" fill-rule="evenodd"><path d="M59.4 9v15.853C77.19 30.858 90 47.683 90 67.5c0 24.853-20.147 45-45 45S0 92.353 0 67.5c0-19.817 12.81-36.642 30.6-42.647V9H27c-2.485 0-4.5-2.02-4.5-4.5C22.5 2.015 24.52 0 27 0h36c2.485 0 4.5 2.02 4.5 4.5C67.5 6.985 65.48 9 63 9h-3.6z" stroke="#FF9500" stroke-width="3" fill="#FFF"/><path d="M54.397 105.617c9.775-2.078 17.503-7.625 22.16-15.877 4.655-8.252-10.16-17.79-34.198-17.527-23.93.26-33.778-22.51-35.653-14.14-1.268 5.656-1.633 10.663-.35 16.705 4.775 22.46 25.578 35.613 48.04 30.84z" stroke="#FF9500" stroke-width="4"/><circle fill="#FF9500" cx="60.995" cy="86.528" r="3.6"/><circle fill="#FF9500" cx="37.8" cy="56.7" r="3.6"/><circle fill="#FF9500" cx="54" cy="51.3" r="5.4"/><circle fill="#FF9500" cx="39.6" cy="40.5" r="5.4"/></g></svg>