<?xml version="1.0" encoding="UTF-8"?>
<svg width="84px" height="113px" viewBox="0 0 84 113" version="1.1" xmlns="http://www.w3.org/2000/svg" xmlns:xlink="http://www.w3.org/1999/xlink">
    <!-- Generator: Sketch 44.1 (41455) - http://www.bohemiancoding.com/sketch -->
    <title>Fill 35</title>
    <desc>Created with Sketch.</desc>
    <defs></defs>
    <g id="Page-1" stroke="none" stroke-width="1" fill="none" fill-rule="evenodd">
        <g id="Services-Copy" transform="translate(-808.000000, -1479.000000)" fill="#FF9500">
            <path d="M817.189796,1496.51626 L817.189796,1499.34129 C816.721972,1499.34129 816.342289,1499.7204 816.342289,1500.18879 C816.342289,1500.65718 816.721972,1501.0363 817.189796,1501.0363 L888.380344,1501.0363 L888.380344,1503.86132 L817.189796,1503.86132 C816.721972,1503.86132 816.342289,1504.24044 816.342289,1504.70883 C816.342289,1505.17722 816.721972,1505.55633 817.189796,1505.55633 L888.380344,1505.55633 L888.380344,1507.81635 L816.534391,1507.81635 C813.616143,1507.81635 810.974748,1505.82641 810.974748,1502.985 L810.974748,1502.16122 C810.974748,1498.96612 813.403137,1496.51626 816.598236,1496.51626 L817.189796,1496.51626 Z M830.7499,1499.34129 L888.380344,1499.34129 L888.380344,1496.51626 L830.7499,1496.51626 L830.7499,1499.34129 Z M816.598236,1589.17698 C813.403137,1589.17698 810.974748,1586.85877 810.974748,1583.66367 L810.974748,1508.62318 C812.104757,1509.9854 814.333134,1510.64137 816.534391,1510.64137 L888.380344,1510.64137 L888.380344,1589.17698 L816.598236,1589.17698 Z M816.598236,1592.002 L889.666294,1592.002 C890.446565,1592.002 891.205366,1591.65057 891.205366,1590.87086 L891.205366,1494.95403 C891.205366,1494.17376 890.446565,1493.69124 889.666294,1493.69124 L830.7499,1493.69124 L830.7499,1479 L823.969848,1489.59383 L817.189796,1479 L817.189796,1493.69124 L816.534391,1493.69124 C811.781574,1493.69124 808,1497.48299 808,1502.27705 C808,1502.61831 808.149726,1502.87821 808.149726,1503.20931 L808.149726,1583.66367 C808.149726,1588.41648 811.84542,1592.002 816.598236,1592.002 L816.598236,1592.002 Z" id="Fill-35"></path>
        </g>
    </g>
</svg>