<svg width="116" height="117" viewBox="0 0 116 117" xmlns="http://www.w3.org/2000/svg"><title>Group 2</title><g fill="#FF9500" fill-rule="evenodd"><path d="M101.834 29.824l-2.746.735c-.455.12-.725.588-.603 1.042.102.382.447.632.823.632.073 0 .147-.01.222-.03l2.746-.734c.455-.122.725-.59.603-1.043-.123-.455-.588-.725-1.046-.603M92.6 32.296l-6.49 1.737c-.455.12-.725.59-.604 1.043.103.38.447.632.824.632.073 0 .147-.01.22-.03l6.49-1.737c.455-.12.725-.587.603-1.042-.12-.454-.588-.723-1.044-.602M79.62 35.77l-6.49 1.736c-.454.122-.723.59-.602 1.044.102.38.447.63.824.63.073 0 .147-.008.222-.028l6.488-1.737c.455-.122.725-.59.603-1.043-.122-.455-.587-.724-1.045-.602M66.643 39.243l-2.747.735c-.455.122-.725.59-.603 1.043.102.382.447.633.823.633.074 0 .147-.01.22-.03l2.748-.734c.455-.123.725-.59.603-1.045-.122-.455-.59-.724-1.044-.602M101.834 44.84l-2.746.734c-.455.12-.725.588-.603 1.043.102.38.447.632.823.632.073 0 .147-.01.222-.03l2.746-.736c.455-.12.725-.588.603-1.043-.123-.453-.588-.723-1.046-.6M79.62 50.784l-6.49 1.737c-.454.123-.723.59-.602 1.044.102.38.447.63.824.63.073 0 .147-.008.222-.028l6.488-1.736c.455-.122.725-.59.603-1.044-.122-.455-.587-.723-1.045-.602M92.6 47.31l-6.49 1.737c-.455.122-.725.59-.604 1.043.103.38.447.632.824.632.073 0 .147-.01.22-.03l6.49-1.736c.455-.122.725-.588.603-1.043-.12-.455-.588-.725-1.044-.602M66.642 54.257l-2.746.735c-.455.122-.725.59-.603 1.044.102.38.447.632.823.632.074 0 .147-.01.22-.03l2.748-.735c.455-.122.725-.59.603-1.044-.122-.455-.588-.724-1.045-.603M101.834 59.853l-2.746.735c-.455.122-.725.59-.603 1.044.102.38.447.63.823.63.073 0 .147-.008.222-.028l2.746-.735c.455-.123.725-.59.603-1.045-.123-.454-.588-.724-1.046-.602M79.62 65.798l-6.49 1.737c-.454.122-.723.59-.602 1.043.102.382.447.633.824.633.073 0 .147-.01.222-.03l6.488-1.736c.455-.122.725-.59.603-1.043-.122-.454-.587-.724-1.045-.602M92.6 62.325l-6.49 1.737c-.455.122-.725.588-.604 1.043.103.38.447.632.824.632.073 0 .147-.01.22-.03l6.49-1.736c.455-.12.725-.588.603-1.043-.12-.455-.588-.724-1.044-.602M66.643 69.272l-2.747.735c-.455.12-.725.588-.603 1.043.102.38.447.632.823.632.074 0 .147-.01.22-.03l2.748-.735c.455-.12.725-.588.603-1.043-.122-.454-.59-.724-1.044-.602M101.834 74.868l-2.746.734c-.455.123-.725.59-.603 1.044.102.38.447.632.823.632.073 0 .147-.01.222-.03l2.746-.735c.455-.12.725-.59.603-1.043-.123-.454-.588-.724-1.046-.602M92.6 77.34l-6.49 1.736c-.455.122-.725.59-.604 1.043.103.38.447.63.824.63.073 0 .147-.008.22-.028l6.49-1.737c.455-.12.725-.59.603-1.043-.12-.455-.588-.725-1.044-.602M79.62 80.813l-6.49 1.737c-.454.12-.723.588-.602 1.043.102.38.447.632.824.632.073 0 .147-.01.222-.03l6.488-1.736c.455-.123.725-.59.603-1.044-.122-.455-.587-.726-1.045-.603M66.642 84.286l-2.746.736c-.455.12-.725.588-.603 1.043.102.38.447.63.823.63.074 0 .147-.008.22-.028l2.748-.735c.455-.122.725-.59.603-1.043-.122-.456-.588-.727-1.045-.604M13.073 31.47l2.747.735c.074.02.148.03.22.03.377 0 .722-.25.824-.633.122-.454-.148-.92-.603-1.043l-2.745-.736c-.452-.122-.923.148-1.045.603-.122.454.148.92.603 1.043M22.308 33.94l6.49 1.738c.073.02.147.03.22.03.377 0 .722-.252.824-.632.122-.455-.148-.922-.603-1.043l-6.49-1.737c-.455-.12-.923.148-1.045.602-.122.455.148.922.603 1.043M35.287 37.415l6.488 1.737c.075.02.148.03.222.03.376 0 .72-.252.823-.633.122-.455-.148-.922-.603-1.044L35.73 35.77c-.457-.122-.924.147-1.047.602-.12.454.15.92.604 1.043M48.265 40.89l2.747.734c.073.02.147.03.22.03.377 0 .722-.252.824-.633.122-.453-.148-.92-.604-1.042l-2.746-.735c-.453-.12-.923.148-1.045.602-.12.455.15.922.605 1.044M13.073 46.484l2.747.735c.074.02.148.03.22.03.377 0 .722-.252.824-.633.122-.455-.148-.922-.603-1.043l-2.745-.735c-.452-.123-.923.146-1.045.6-.122.456.148.923.603 1.044M35.287 52.43l6.488 1.736c.075.02.148.03.222.03.376 0 .72-.25.823-.632.122-.455-.148-.92-.603-1.043l-6.488-1.736c-.457-.123-.924.147-1.047.602-.12.455.15.922.604 1.044M22.308 48.956l6.49 1.737c.073.02.147.03.22.03.377 0 .722-.252.824-.633.122-.454-.148-.92-.603-1.043l-6.49-1.736c-.455-.122-.923.148-1.045.603-.122.455.148.92.603 1.043M48.265 55.903l2.746.735c.075.02.15.03.223.03.376 0 .72-.25.823-.632.122-.455-.148-.922-.603-1.044l-2.747-.735c-.456-.12-.923.148-1.045.602-.12.454.15.92.605 1.043M13.073 61.5l2.747.734c.074.02.148.03.22.03.377 0 .722-.252.824-.632.122-.455-.148-.922-.603-1.044l-2.745-.735c-.452-.12-.923.148-1.045.602-.122.455.148.922.603 1.044M35.287 67.444l6.488 1.737c.075.02.148.03.222.03.376 0 .72-.25.823-.632.122-.454-.148-.92-.603-1.043l-6.488-1.737c-.457-.122-.924.148-1.047.603-.12.455.15.922.604 1.044M22.308 63.97l6.49 1.737c.073.02.147.03.22.03.377 0 .722-.252.824-.632.122-.455-.148-.922-.603-1.044l-6.49-1.735c-.455-.122-.923.148-1.045.602-.122.455.148.922.603 1.044M48.265 70.917l2.747.735c.073.02.147.03.22.03.377 0 .722-.25.824-.632.122-.455-.148-.922-.604-1.043l-2.746-.735c-.453-.12-.923.148-1.045.602-.12.455.15.922.605 1.043M13.073 76.513l2.747.735c.074.02.148.03.22.03.377 0 .722-.25.824-.632.122-.455-.148-.92-.603-1.044l-2.745-.734c-.452-.12-.923.148-1.045.602-.122.454.148.922.603 1.043M22.308 78.985l6.49 1.737c.073.02.147.03.22.03.377 0 .722-.252.824-.633.122-.455-.148-.922-.603-1.044l-6.49-1.736c-.455-.123-.923.148-1.045.602-.122.454.148.922.603 1.043M35.287 82.458l6.488 1.737c.075.02.148.03.222.03.376 0 .72-.25.823-.632.122-.455-.148-.922-.603-1.043l-6.488-1.737c-.457-.122-.924.148-1.047.602-.12.455.15.922.604 1.043M48.265 85.932l2.746.735c.075.02.15.03.223.03.376 0 .72-.252.823-.632.122-.455-.148-.922-.603-1.043l-2.747-.736c-.456-.122-.923.148-1.045.603-.12.453.15.92.605 1.042"/><path d="M2.843 21.667c0-.993.53-1.573 1.525-1.573h1.318v78.324c0 2.473 1.707 4.76 4.098 5.4l36.936 9.99H4.368c-.994 0-1.525-1.035-1.525-2.028V21.667zM8.53 5.477c0-1.455 1.215-2.637 2.665-2.637.23 0 .447.03.675.092l44.424 11.894v98.395l-45.807-12.26c-1.15-.306-1.958-1.352-1.958-2.542V5.476zm51.176 9.35L104.02 2.93c.228-.06.526-.092.756-.092 1.45 0 2.695 1.182 2.695 2.636v92.942c0 1.19-.806 2.236-1.957 2.543l-45.807 12.26V14.827zm51.37 4.7c.995 0 2.08.58 2.08 1.572v90.68c0 .993-1.085 2.027-2.08 2.027h-41.98l37.028-9.99c2.39-.64 4.19-2.926 4.19-5.4v-78.89h.763zM4.37 116.646H57.33l.085-.09c.12.032.245-.01.368-.01l.124-.038.125-.005c.123 0 .247.09.368.058l.084.084h52.593c2.56 0 4.923-2.308 4.923-4.867V21.1c0-2.56-2.362-4.414-4.923-4.414h-.763V5.476c0-3.02-2.584-5.476-5.6-5.476-.48 0-1.024.064-1.492.19L57.94 12.3 12.673.19C12.206.063 11.68 0 11.203 0 8.185 0 5.686 2.456 5.686 5.476v11.778H4.368C1.808 17.254 0 19.108 0 21.667v90.113c0 2.56 1.807 4.867 4.368 4.867z"/></g></svg>