<?xml version="1.0" encoding="UTF-8"?>
<svg width="84px" height="116px" viewBox="0 0 84 116" version="1.1" xmlns="http://www.w3.org/2000/svg" xmlns:xlink="http://www.w3.org/1999/xlink">
    <!-- Generator: Sketch 44.1 (41455) - http://www.bohemiancoding.com/sketch -->
    <title>Group</title>
    <desc>Created with Sketch.</desc>
    <defs></defs>
    <g id="Page-1" stroke="none" stroke-width="1" fill="none" fill-rule="evenodd">
        <g id="Services-Copy" transform="translate(-806.000000, -661.000000)" fill="#FF9500">
            <g id="Group" transform="translate(806.000000, 661.000000)">
                <path d="M81.1428571,111.332 C81.1428571,112.332 80.332,113.142857 79.332,113.142857 L4.668,113.142857 C3.668,113.142857 2.85714286,112.332 2.85714286,111.332 L2.85714286,4.668 C2.85714286,3.668 3.668,2.85714286 4.668,2.85714286 L79.332,2.85714286 C80.332,2.85714286 81.1428571,3.668 81.1428571,4.668 L81.1428571,111.332 Z M84,4.668 C84,2.09028571 81.9102857,0 79.332,0 L4.668,0 C2.08971429,0 0,2.09028571 0,4.668 L0,111.332 C0,113.909714 2.08971429,116 4.668,116 L79.332,116 C81.9102857,116 84,113.909714 84,111.332 L84,4.668 L84,4.668 Z" id="Fill-75"></path>
                <path d="M74.8571429,26.1891429 C74.8571429,27.1891429 74.0462857,28 73.0457143,28 L10.3828571,28 C9.38228571,28 8.57142857,27.1891429 8.57142857,26.1891429 L8.57142857,20.668 C8.57142857,19.668 9.38228571,18.8571429 10.3828571,18.8571429 L73.0457143,18.8571429 C74.0462857,18.8571429 74.8571429,19.668 74.8571429,20.668 L74.8571429,26.1891429 Z M77.7142857,20.668 C77.7142857,18.0897143 75.624,16 73.0457143,16 L10.3828571,16 C7.80457143,16 5.71428571,18.0897143 5.71428571,20.668 L5.71428571,26.1891429 C5.71428571,28.7674286 7.80457143,30.8571429 10.3828571,30.8571429 L73.0457143,30.8571429 C75.624,30.8571429 77.7142857,28.7674286 77.7142857,26.1891429 L77.7142857,20.668 L77.7142857,20.668 Z" id="Fill-76"></path>
                <path d="M35.4285714,12 L48.5714286,12 C49.3605714,12 50,11.3605714 50,10.5714286 C50,9.78228571 49.3605714,9.14285714 48.5714286,9.14285714 L35.4285714,9.14285714 C34.6394286,9.14285714 34,9.78228571 34,10.5714286 C34,11.3605714 34.6394286,12 35.4285714,12" id="Fill-77"></path>
                <path d="M20,54.7605714 C20,55.7605714 19.1891429,56.5714286 18.1891429,56.5714286 L13.8108571,56.5714286 C12.8108571,56.5714286 12,55.7605714 12,54.7605714 L12,50.3822857 C12,49.3822857 12.8108571,48.5714286 13.8108571,48.5714286 L18.1891429,48.5714286 C19.1891429,48.5714286 20,49.3822857 20,50.3822857 L20,54.7605714 Z M22.8571429,50.3822857 C22.8571429,47.804 20.7674286,45.7142857 18.1891429,45.7142857 L13.8108571,45.7142857 C11.2325714,45.7142857 9.14285714,47.804 9.14285714,50.3822857 L9.14285714,54.7605714 C9.14285714,57.3388571 11.2325714,59.4285714 13.8108571,59.4285714 L18.1891429,59.4285714 C20.7674286,59.4285714 22.8571429,57.3388571 22.8571429,54.7605714 L22.8571429,50.3822857 L22.8571429,50.3822857 Z" id="Fill-78"></path>
                <path d="M37.1428571,54.7605714 C37.1428571,55.7605714 36.332,56.5714286 35.332,56.5714286 L30.9537143,56.5714286 C29.9537143,56.5714286 29.1428571,55.7605714 29.1428571,54.7605714 L29.1428571,50.3822857 C29.1428571,49.3822857 29.9537143,48.5714286 30.9537143,48.5714286 L35.332,48.5714286 C36.332,48.5714286 37.1428571,49.3822857 37.1428571,50.3822857 L37.1428571,54.7605714 Z M40,50.3822857 C40,47.8045714 37.9102857,45.7142857 35.332,45.7142857 L30.9537143,45.7142857 C28.3754286,45.7142857 26.2857143,47.8045714 26.2857143,50.3822857 L26.2857143,54.7605714 C26.2857143,57.3382857 28.3754286,59.4285714 30.9537143,59.4285714 L35.332,59.4285714 C37.9102857,59.4285714 40,57.3382857 40,54.7605714 L40,50.3822857 L40,50.3822857 Z" id="Fill-79"></path>
                <path d="M54.8571429,54.7605714 C54.8571429,55.7605714 54.0462857,56.5714286 53.0462857,56.5714286 L48.668,56.5714286 C47.668,56.5714286 46.8571429,55.7605714 46.8571429,54.7605714 L46.8571429,50.3822857 C46.8571429,49.3822857 47.668,48.5714286 48.668,48.5714286 L53.0462857,48.5714286 C54.0462857,48.5714286 54.8571429,49.3822857 54.8571429,50.3822857 L54.8571429,54.7605714 Z M57.7142857,50.3822857 C57.7142857,47.8045714 55.6245714,45.7142857 53.0462857,45.7142857 L48.668,45.7142857 C46.0897143,45.7142857 44,47.8045714 44,50.3822857 L44,54.7605714 C44,57.3382857 46.0897143,59.4285714 48.668,59.4285714 L53.0462857,59.4285714 C55.6245714,59.4285714 57.7142857,57.3382857 57.7142857,54.7605714 L57.7142857,50.3822857 L57.7142857,50.3822857 Z" id="Fill-80"></path>
                <path d="M72,54.7605714 C72,55.7605714 71.1891429,56.5714286 70.1891429,56.5714286 L65.8108571,56.5714286 C64.8108571,56.5714286 64,55.7605714 64,54.7605714 L64,50.3822857 C64,49.3822857 64.8108571,48.5714286 65.8108571,48.5714286 L70.1891429,48.5714286 C71.1891429,48.5714286 72,49.3822857 72,50.3822857 L72,54.7605714 Z M74.8571429,50.3822857 C74.8571429,47.8045714 72.7674286,45.7142857 70.1891429,45.7142857 L65.8108571,45.7142857 C63.2325714,45.7142857 61.1428571,47.8045714 61.1428571,50.3822857 L61.1428571,54.7605714 C61.1428571,57.3382857 63.2325714,59.4285714 65.8108571,59.4285714 L70.1891429,59.4285714 C72.7674286,59.4285714 74.8571429,57.3382857 74.8571429,54.7605714 L74.8571429,50.3822857 L74.8571429,50.3822857 Z" id="Fill-81"></path>
                <path d="M20,70.7605714 C20,71.7605714 19.1891429,72.5714286 18.1891429,72.5714286 L13.8108571,72.5714286 C12.8108571,72.5714286 12,71.7605714 12,70.7605714 L12,66.3822857 C12,65.3822857 12.8108571,64.5714286 13.8108571,64.5714286 L18.1891429,64.5714286 C19.1891429,64.5714286 20,65.3822857 20,66.3822857 L20,70.7605714 Z M22.8571429,66.3822857 C22.8571429,63.8045714 20.7674286,61.7142857 18.1891429,61.7142857 L13.8108571,61.7142857 C11.2325714,61.7142857 9.14285714,63.8045714 9.14285714,66.3822857 L9.14285714,70.7605714 C9.14285714,73.3382857 11.2325714,75.4285714 13.8108571,75.4285714 L18.1891429,75.4285714 C20.7674286,75.4285714 22.8571429,73.3382857 22.8571429,70.7605714 L22.8571429,66.3822857 L22.8571429,66.3822857 Z" id="Fill-82"></path>
                <path d="M37.1428571,70.7605714 C37.1428571,71.7605714 36.332,72.5714286 35.332,72.5714286 L30.9537143,72.5714286 C29.9537143,72.5714286 29.1428571,71.7605714 29.1428571,70.7605714 L29.1428571,66.3822857 C29.1428571,65.3822857 29.9537143,64.5714286 30.9537143,64.5714286 L35.332,64.5714286 C36.332,64.5714286 37.1428571,65.3822857 37.1428571,66.3822857 L37.1428571,70.7605714 Z M40,66.3822857 C40,63.804 37.9102857,61.7142857 35.332,61.7142857 L30.9537143,61.7142857 C28.3754286,61.7142857 26.2857143,63.804 26.2857143,66.3822857 L26.2857143,70.7605714 C26.2857143,73.3388571 28.3754286,75.4285714 30.9537143,75.4285714 L35.332,75.4285714 C37.9102857,75.4285714 40,73.3388571 40,70.7605714 L40,66.3822857 L40,66.3822857 Z" id="Fill-83"></path>
                <path d="M54.8571429,70.7605714 C54.8571429,71.7605714 54.0462857,72.5714286 53.0462857,72.5714286 L48.668,72.5714286 C47.668,72.5714286 46.8571429,71.7605714 46.8571429,70.7605714 L46.8571429,66.3822857 C46.8571429,65.3822857 47.668,64.5714286 48.668,64.5714286 L53.0462857,64.5714286 C54.0462857,64.5714286 54.8571429,65.3822857 54.8571429,66.3822857 L54.8571429,70.7605714 Z M57.7142857,66.3822857 C57.7142857,63.804 55.6245714,61.7142857 53.0462857,61.7142857 L48.668,61.7142857 C46.0897143,61.7142857 44,63.804 44,66.3822857 L44,70.7605714 C44,73.3388571 46.0897143,75.4285714 48.668,75.4285714 L53.0462857,75.4285714 C55.6245714,75.4285714 57.7142857,73.3388571 57.7142857,70.7605714 L57.7142857,66.3822857 L57.7142857,66.3822857 Z" id="Fill-84"></path>
                <path d="M72,70.7605714 C72,71.7605714 71.1891429,72.5714286 70.1891429,72.5714286 L65.8108571,72.5714286 C64.8108571,72.5714286 64,71.7605714 64,70.7605714 L64,66.3822857 C64,65.3822857 64.8108571,64.5714286 65.8108571,64.5714286 L70.1891429,64.5714286 C71.1891429,64.5714286 72,65.3822857 72,66.3822857 L72,70.7605714 Z M74.8571429,66.3822857 C74.8571429,63.804 72.7674286,61.7142857 70.1891429,61.7142857 L65.8108571,61.7142857 C63.2325714,61.7142857 61.1428571,63.804 61.1428571,66.3822857 L61.1428571,70.7605714 C61.1428571,73.3388571 63.2325714,75.4285714 65.8108571,75.4285714 L70.1891429,75.4285714 C72.7674286,75.4285714 74.8571429,73.3388571 74.8571429,70.7605714 L74.8571429,66.3822857 L74.8571429,66.3822857 Z" id="Fill-85"></path>
                <path d="M19.4285714,87.332 C19.4285714,88.3302857 18.616,89.1428571 17.6171429,89.1428571 L13.24,89.1428571 C12.2411429,89.1428571 11.4285714,88.3302857 11.4285714,87.332 L11.4285714,82.9537143 C11.4285714,81.9554286 12.2411429,81.1428571 13.24,81.1428571 L17.6171429,81.1428571 C18.616,81.1428571 19.4285714,81.9554286 19.4285714,82.9537143 L19.4285714,87.332 Z M17.6171429,78.2857143 L13.24,78.2857143 C10.6657143,78.2857143 8.57142857,80.38 8.57142857,82.9537143 L8.57142857,87.332 C8.57142857,89.9057143 10.6657143,92 13.24,92 L17.6171429,92 C20.1914286,92 22.2857143,89.9057143 22.2857143,87.332 L22.2857143,82.9537143 C22.2857143,80.38 20.1914286,78.2857143 17.6171429,78.2857143 L17.6171429,78.2857143 Z" id="Fill-86"></path>
                <path d="M37.1428571,87.332 C37.1428571,88.3302857 36.3302857,89.1428571 35.3314286,89.1428571 L30.9542857,89.1428571 C29.9554286,89.1428571 29.1428571,88.3302857 29.1428571,87.332 L29.1428571,82.9537143 C29.1428571,81.9554286 29.9554286,81.1428571 30.9542857,81.1428571 L35.3314286,81.1428571 C36.3302857,81.1428571 37.1428571,81.9554286 37.1428571,82.9537143 L37.1428571,87.332 Z M35.3314286,78.2857143 L30.9542857,78.2857143 C28.38,78.2857143 26.2857143,80.38 26.2857143,82.9537143 L26.2857143,87.332 C26.2857143,89.9057143 28.38,92 30.9542857,92 L35.3314286,92 C37.9057143,92 40,89.9057143 40,87.332 L40,82.9537143 C40,80.38 37.9057143,78.2857143 35.3314286,78.2857143 L35.3314286,78.2857143 Z" id="Fill-87"></path>
                <path d="M54.8571429,87.332 C54.8571429,88.3302857 54.0445714,89.1428571 53.0457143,89.1428571 L48.6685714,89.1428571 C47.6697143,89.1428571 46.8571429,88.3302857 46.8571429,87.332 L46.8571429,82.9537143 C46.8571429,81.9554286 47.6697143,81.1428571 48.6685714,81.1428571 L53.0457143,81.1428571 C54.0445714,81.1428571 54.8571429,81.9554286 54.8571429,82.9537143 L54.8571429,87.332 Z M53.0457143,78.2857143 L48.6685714,78.2857143 C46.0942857,78.2857143 44,80.38 44,82.9537143 L44,87.332 C44,89.9057143 46.0942857,92 48.6685714,92 L53.0457143,92 C55.62,92 57.7142857,89.9057143 57.7142857,87.332 L57.7142857,82.9537143 C57.7142857,80.38 55.62,78.2857143 53.0457143,78.2857143 L53.0457143,78.2857143 Z" id="Fill-88"></path>
                <path d="M19.4285714,103.903429 C19.4285714,104.901714 18.616,105.714286 17.6171429,105.714286 L13.24,105.714286 C12.2411429,105.714286 11.4285714,104.901714 11.4285714,103.903429 L11.4285714,99.5251429 C11.4285714,98.5268571 12.2411429,97.7142857 13.24,97.7142857 L17.6171429,97.7142857 C18.616,97.7142857 19.4285714,98.5268571 19.4285714,99.5251429 L19.4285714,103.903429 Z M17.6171429,94.8571429 L13.24,94.8571429 C10.6657143,94.8571429 8.57142857,96.9514286 8.57142857,99.5251429 L8.57142857,103.903429 C8.57142857,106.477143 10.6657143,108.571429 13.24,108.571429 L17.6171429,108.571429 C20.1914286,108.571429 22.2857143,106.477143 22.2857143,103.903429 L22.2857143,99.5251429 C22.2857143,96.9514286 20.1914286,94.8571429 17.6171429,94.8571429 L17.6171429,94.8571429 Z" id="Fill-89"></path>
                <path d="M37.1428571,103.903429 C37.1428571,104.901714 36.3302857,105.714286 35.3314286,105.714286 L30.9542857,105.714286 C29.9554286,105.714286 29.1428571,104.901714 29.1428571,103.903429 L29.1428571,99.5251429 C29.1428571,98.5268571 29.9554286,97.7142857 30.9542857,97.7142857 L35.3314286,97.7142857 C36.3302857,97.7142857 37.1428571,98.5268571 37.1428571,99.5251429 L37.1428571,103.903429 Z M35.3314286,94.8571429 L30.9542857,94.8571429 C28.38,94.8571429 26.2857143,96.9514286 26.2857143,99.5251429 L26.2857143,103.903429 C26.2857143,106.477143 28.38,108.571429 30.9542857,108.571429 L35.3314286,108.571429 C37.9057143,108.571429 40,106.477143 40,103.903429 L40,99.5251429 C40,96.9514286 37.9057143,94.8571429 35.3314286,94.8571429 L35.3314286,94.8571429 Z" id="Fill-90"></path>
                <path d="M54.8571429,103.903429 C54.8571429,104.901714 54.0445714,105.714286 53.0457143,105.714286 L48.6685714,105.714286 C47.6697143,105.714286 46.8571429,104.901714 46.8571429,103.903429 L46.8571429,99.5251429 C46.8571429,98.5268571 47.6697143,97.7142857 48.6685714,97.7142857 L53.0457143,97.7142857 C54.0445714,97.7142857 54.8571429,98.5268571 54.8571429,99.5251429 L54.8571429,103.903429 Z M53.0457143,94.8571429 L48.6685714,94.8571429 C46.0942857,94.8571429 44,96.9514286 44,99.5251429 L44,103.903429 C44,106.477143 46.0942857,108.571429 48.6685714,108.571429 L53.0457143,108.571429 C55.62,108.571429 57.7142857,106.477143 57.7142857,103.903429 L57.7142857,99.5251429 C57.7142857,96.9514286 55.62,94.8571429 53.0457143,94.8571429 L53.0457143,94.8571429 Z" id="Fill-91"></path>
                <path d="M72,103.753143 C72,104.779429 71.1222857,105.714286 70.1577143,105.714286 L65.9702857,105.714286 C64.976,105.714286 64,104.742857 64,103.753143 L64,83.1 C64,82.112 64.976,81.1428571 65.9702857,81.1428571 L70.1577143,81.1428571 C71.1222857,81.1428571 72,82.0754286 72,83.1 L72,103.753143 Z M70.1577143,78.2857143 L65.9702857,78.2857143 C63.3988571,78.2857143 61.1428571,80.5354286 61.1428571,83.1 L61.1428571,103.753143 C61.1428571,106.32 63.3988571,108.571429 65.9702857,108.571429 L70.1577143,108.571429 C72.7051429,108.571429 74.8571429,106.365143 74.8571429,103.753143 L74.8571429,83.1 C74.8571429,80.4902857 72.7051429,78.2857143 70.1577143,78.2857143 L70.1577143,78.2857143 Z" id="Fill-92"></path>
            </g>
        </g>
    </g>
</svg>