<?xml version="1.0" encoding="UTF-8"?>
<svg width="130px" height="109px" viewBox="0 0 130 109" version="1.1" xmlns="http://www.w3.org/2000/svg" xmlns:xlink="http://www.w3.org/1999/xlink">
    <!-- Generator: Sketch 44.1 (41455) - http://www.bohemiancoding.com/sketch -->
    <title>Group 4</title>
    <desc>Created with Sketch.</desc>
    <defs></defs>
    <g id="Page-1" stroke="none" stroke-width="1" fill="none" fill-rule="evenodd">
        <g id="Services-Copy" transform="translate(-470.000000, -1483.000000)" fill="#FF9500">
            <g id="Group-4" transform="translate(470.000000, 1483.000000)">
                <path d="M101.023673,18.18 L108.61601,22.5486 L71.4056735,86.781 L66.4183673,86.7684 L63.846449,82.3548 L101.023673,18.18 Z M106.818316,8.1768 C108.668388,4.9836 112.119286,3 115.823643,3 C117.634582,3 119.426857,3.48 121.005408,4.3884 C123.407551,5.7714 125.125776,8.0028 125.84401,10.6734 C126.561643,13.3434 126.193194,16.1328 124.806092,18.5268 L124.128796,19.6962 L106.14102,9.3462 L106.818316,8.1768 Z M119.011449,28.5294 L81.8342245,92.7048 L76.7150714,92.6928 L74.0793367,88.1658 L111.223449,24.0486 L119.011449,28.5294 Z M104.635918,11.9442 L122.623694,22.2942 L120.516551,25.9314 L102.528776,15.5814 L104.635918,11.9442 Z M66.0378776,101.9718 L63.6501837,100.5978 L63.6242959,87.9474 L64.2486122,89.0196 C64.5171224,89.4804 65.012,89.7648 65.5466122,89.766 L71.5399286,89.7816 L74.5459184,94.9434 C74.8144286,95.4048 75.3087041,95.6892 75.8439184,95.6904 L77.0287347,95.6934 L66.0378776,101.9718 Z M127.412929,20.0268 C129.202194,16.9386 129.677806,13.341 128.751867,9.897 C127.825929,6.4524 125.609214,3.5736 122.51051,1.7904 C120.474408,0.6192 118.162571,0 115.823643,0 C111.047051,0 106.597367,2.5584 104.21148,6.6768 L61.2287755,81.0822 C60.9199286,81.3852 60.8434694,81.8118 60.8434694,82.257 L60.7712245,105.9762 C60.7724286,106.5114 60.9987959,107.0052 61.4635714,107.2728 C61.6959592,107.4066 61.9259388,107.4738 62.1860204,107.4738 C62.4442959,107.4738 62.6887245,107.4036 62.9205102,107.271 L83.8360102,95.1768 L84.0057857,94.9572 L127.412929,20.0268 Z" id="Fill-40"></path>
                <path d="M14.0212245,105.0508 L1.98040816,105.0508 C1.1489898,105.0508 0.475306122,105.7222 0.475306122,106.5508 C0.475306122,107.3794 1.1489898,108.0508 1.98040816,108.0508 L14.0212245,108.0508 C14.8526429,108.0508 15.5263265,107.3794 15.5263265,106.5508 C15.5263265,105.7222 14.8526429,105.0508 14.0212245,105.0508" id="Fill-41"></path>
                <path d="M38.1028571,105.0508 L26.0620408,105.0508 C25.2306224,105.0508 24.5569388,105.7222 24.5569388,106.5508 C24.5569388,107.3794 25.2306224,108.0508 26.0620408,108.0508 L38.1028571,108.0508 C38.9342755,108.0508 39.6079592,107.3794 39.6079592,106.5508 C39.6079592,105.7222 38.9342755,105.0508 38.1028571,105.0508" id="Fill-42"></path>
                <path d="M62.1844898,105.0508 L50.1436735,105.0508 C49.3122551,105.0508 48.6385714,105.7222 48.6385714,106.5508 C48.6385714,107.3794 49.3122551,108.0508 50.1436735,108.0508 L62.1844898,108.0508 C63.0159082,108.0508 63.6895918,107.3794 63.6895918,106.5508 C63.6895918,105.7222 63.0159082,105.0508 62.1844898,105.0508" id="Fill-43"></path>
            </g>
        </g>
    </g>
</svg>