<?xml version="1.0" encoding="UTF-8"?>
<svg width="136px" height="112px" viewBox="0 0 136 112" version="1.1" xmlns="http://www.w3.org/2000/svg" xmlns:xlink="http://www.w3.org/1999/xlink">
    <!-- Generator: Sketch 44.1 (41455) - http://www.bohemiancoding.com/sketch -->
    <title>Fill 1</title>
    <desc>Created with Sketch.</desc>
    <defs></defs>
    <g id="Page-1" stroke="none" stroke-width="1" fill="none" fill-rule="evenodd">
        <g id="Services-Copy" transform="translate(-778.000000, -1857.000000)" fill="#FF9500">
            <path d="M908.540937,1901.17634 L887.071289,1913.45196 C886.988508,1913.48333 886.904392,1913.51137 886.826284,1913.5561 L847.086739,1936.13662 C846.636784,1936.39431 846.076677,1936.417 845.51123,1936.417 L845.503886,1936.417 L845.390396,1936.53383 L845.244862,1936.59392 C845.186114,1936.59659 845.061275,1936.62863 844.935101,1936.62997 L844.78022,1936.61928 C844.717467,1936.61194 844.66673,1936.61127 844.619999,1936.60059 C844.49249,1936.57188 844.399695,1936.52248 844.127986,1936.3636 L799.602499,1910.76358 C799.975013,1910.62338 800.354871,1910.49588 800.750751,1910.39707 L843.808211,1899.5808 C844.482476,1899.41123 844.823614,1898.72829 844.654714,1898.05536 C844.485814,1897.3811 843.801535,1896.97187 843.129274,1897.14143 L800.061132,1907.95837 C798.932907,1908.24143 797.874112,1908.66735 796.896762,1909.20943 L782.927471,1901.17701 C781.931429,1900.60689 781.337943,1899.58481 781.337943,1898.44323 C781.337943,1897.32969 781.889371,1896.37571 782.852701,1895.82361 L843.972438,1860.74584 L844.238806,1860.59029 C844.566592,1860.39536 844.5726,1860.39202 844.78022,1860.36732 L844.933098,1860.34128 C845.059272,1860.34262 845.184111,1860.34462 845.242192,1860.34729 L845.389729,1860.34862 L845.514568,1860.34595 C846.169472,1860.34595 846.937199,1860.51419 847.342425,1860.74584 L908.616375,1895.82495 C909.57837,1896.37571 910.130466,1897.32969 910.130466,1898.44323 C910.130466,1899.58481 909.536312,1900.60689 908.540937,1901.17634 Z M888.752277,1927.49535 C886.148014,1935.9557 868.347432,1944.88136 845.879739,1944.88136 C823.972152,1944.88136 806.498021,1936.3883 803.236851,1928.11821 C803.855038,1925.20752 804.687521,1921.40427 805.438558,1917.97954 L842.378904,1939.22622 C842.815507,1939.4779 843.264127,1939.73759 843.960422,1939.88045 C844.160031,1939.96123 844.377664,1939.99461 844.595966,1940.00062 C844.595966,1940.00062 845.094655,1939.99661 845.327643,1939.99061 L845.490535,1939.98393 L845.512565,1939.99261 C845.659434,1939.99261 845.806972,1939.97392 845.954509,1939.96524 C846.06199,1939.95789 846.167469,1939.95723 846.274284,1939.94454 C847.20557,1939.8444 848.114158,1939.57203 848.847837,1939.15278 L886.53388,1917.60436 C887.539269,1922.02847 888.251586,1925.2142 888.752277,1927.49535 Z M846.067999,1948.88689 C819.943923,1948.88689 802.379,1940.56941 802.312908,1932.78532 C802.336274,1932.55767 802.438415,1931.99957 802.596633,1931.20314 C808.359258,1939.93653 826.396834,1946.88413 845.879739,1946.88413 C865.691097,1946.88413 884.013066,1939.70555 889.45725,1930.76987 C889.710934,1931.98755 889.817748,1932.57036 889.844452,1932.79467 C889.765009,1940.57675 872.194745,1948.88689 846.067999,1948.88689 Z M910.274665,1892.92761 L849.000715,1857.84917 C848.035382,1857.29641 846.614754,1856.9753 845.326308,1857.01068 C845.093987,1857.00467 844.595966,1857 844.595966,1857 C844.372991,1857.00668 844.19074,1857.03805 844.003147,1857.11215 C843.327548,1857.24834 842.90897,1857.49535 842.534452,1857.71833 L781.193076,1892.92361 C779.193648,1894.06852 778,1896.1267 778,1898.43522 C778,1900.78914 779.221687,1902.8867 781.266511,1904.05698 L794.020791,1911.38777 C791.619475,1913.79042 790.176148,1917.10166 790.176148,1920.7033 L790.176148,1955.12484 C788.840971,1955.60617 787.804873,1956.87926 787.804873,1958.38935 C787.804873,1959.59768 788.392351,1960.66182 789.327643,1961.28535 L787.049163,1967.32302 C787.049163,1967.32302 788.718802,1969 791.233608,1969 C793.748414,1969 795.421391,1967.32302 795.421391,1967.32302 L793.155596,1961.28535 C794.090887,1960.66182 794.841925,1959.59768 794.841925,1958.38935 C794.841925,1956.94669 794.181679,1955.70898 792.846502,1955.18225 L792.846502,1920.7033 C792.846502,1917.5643 794.162987,1914.69701 796.358018,1912.73029 L802.409709,1916.20843 L802.278861,1916.80592 C799.758714,1928.29846 798.974965,1931.99623 798.974965,1932.74126 C798.974965,1943.66635 819.660197,1952.22483 846.067999,1952.22483 C872.487149,1952.22483 893.182395,1943.66635 893.182395,1932.74126 C893.182395,1932.35473 893.180392,1931.76725 889.563397,1915.87263 L910.19856,1904.07367 C912.246722,1902.90206 913.468409,1900.79648 913.468409,1898.44323 C913.468409,1896.13404 912.27476,1894.07253 910.274665,1892.92761 L910.274665,1892.92761 Z" id="Fill-1"></path>
        </g>
    </g>
</svg>