<?xml version="1.0" encoding="UTF-8"?>
<svg width="89px" height="116px" viewBox="0 0 89 116" version="1.1" xmlns="http://www.w3.org/2000/svg" xmlns:xlink="http://www.w3.org/1999/xlink">
    <!-- Generator: Sketch 44.1 (41455) - http://www.bohemiancoding.com/sketch -->
    <title>study-icon</title>
    <desc>Created with Sketch.</desc>
    <defs></defs>
    <g id="Page-1" stroke="none" stroke-width="1" fill="none" fill-rule="evenodd">
        <g id="Services-Copy" transform="translate(-459.000000, -1039.000000)" fill-rule="nonzero" fill="#FF9500">
            <g id="study-icon" transform="translate(459.000000, 1039.000000)">
                <path d="M89,23.2 C89,23.0066667 89,22.8133333 88.8065217,22.62 L88.8065217,22.4266667 C88.6130435,22.2333333 88.6130435,22.04 88.4195652,21.8466667 L67.1369565,0.58 C66.9434783,0.386666667 66.75,0.386666667 66.5565217,0.193333333 L66.3630435,0.193333333 C66.1695652,0.193333333 65.976087,0 65.7826087,0 L65.7826087,0 L1.93478261,0 C0.773913043,0 0,0.773333333 0,1.93333333 L0,114.066667 C0,115.226667 0.773913043,116 1.93478261,116 L11.6086957,116 L23.2173913,116 L32.8913043,116 L50.3043478,116 L87.0652174,116 C88.226087,116 89,115.226667 89,114.066667 L89,23.2 L89,23.2 Z M82.4217391,21.2666667 L67.7173913,21.2666667 L67.7173913,6.57333333 L82.4217391,21.2666667 Z M13.5434783,44.4666667 L21.2826087,44.4666667 L21.2826087,100.533333 L13.5434783,100.533333 L13.5434783,44.4666667 Z M14.5108696,40.6 L17.4130435,33.8333333 L20.3152174,40.6 L14.5108696,40.6 Z M13.5434783,112.133333 L13.5434783,104.4 L21.2826087,104.4 L21.2826087,112.133333 L13.5434783,112.133333 Z M34.826087,112.133333 L34.826087,100.533333 L42.5652174,100.533333 L42.5652174,96.6666667 L34.826087,96.6666667 L34.826087,85.0666667 L42.5652174,85.0666667 L42.5652174,81.2 L34.826087,81.2 L34.826087,67.6666667 L42.5652174,67.6666667 L42.5652174,63.8 L34.826087,63.8 L34.826087,52.2 L42.5652174,52.2 L42.5652174,48.3333333 L34.826087,48.3333333 L34.826087,38.6666667 L48.3695652,38.6666667 L48.3695652,112.133333 L34.826087,112.133333 Z M52.2391304,112.133333 L52.2391304,36.7333333 C52.2391304,35.5733333 51.4652174,34.8 50.3043478,34.8 L32.8913043,34.8 C31.7304348,34.8 30.9565217,35.5733333 30.9565217,36.7333333 L30.9565217,112.133333 L25.1521739,112.133333 L25.1521739,102.466667 L25.1521739,42.5333333 C25.1521739,41.9533333 19.1543478,28.42 19.1543478,28.42 C18.9608696,27.6466667 18.1869565,27.26 17.4130435,27.26 C16.6391304,27.26 16.0586957,27.6466667 15.6717391,28.42 C15.6717391,28.42 9.67391304,41.9533333 9.67391304,42.5333333 L9.67391304,102.466667 L9.67391304,112.133333 L3.86956522,112.133333 L3.86956522,3.86666667 L63.8478261,3.86666667 L63.8478261,23.2 C63.8478261,24.36 64.6217391,25.1333333 65.7826087,25.1333333 L85.1304348,25.1333333 L85.1304348,112.133333 L52.2391304,112.133333 Z" id="Shape"></path>
                <rect id="Rectangle-path" x="9.67391304" y="9.66666667" width="15.4782609" height="3.86666667" rx="1.93333333"></rect>
                <rect id="Rectangle-path" x="59.9782609" y="42.5333333" width="17.4130435" height="3.86666667" rx="1.93333333"></rect>
                <rect id="Rectangle-path" x="59.9782609" y="54.8333333" width="17.4130435" height="3.86666667" rx="1.93333333"></rect>
                <rect id="Rectangle-path" x="59.9782609" y="67.1333333" width="17.4130435" height="3.86666667" rx="1.93333333"></rect>
                <rect id="Rectangle-path" x="59.9782609" y="79.4333333" width="17.4130435" height="3.86666667" rx="1.93333333"></rect>
                <rect id="Rectangle-path" x="59.9782609" y="91.7333333" width="17.4130435" height="3.86666667" rx="1.93333333"></rect>
                <rect id="Rectangle-path" x="9.67391304" y="17.4" width="30.9565217" height="3.86666667" rx="1.93333333"></rect>
            </g>
        </g>
    </g>
</svg>