<svg width="206" height="49" viewBox="0 0 206 49" xmlns="http://www.w3.org/2000/svg"><title>White Logo</title><g fill="none" fill-rule="evenodd"><path fill="#FFF" d="M3.937 1.722h45.26v8.395H3.937z"/><path d="M50.49 9.15H6.518c-.892 0-1.617-.73-1.617-1.625V4.96c0-.9.72-1.623 1.617-1.623H50.49c.89 0 1.61-.723 1.61-1.615S51.38.108 50.49.108H6.518c-2.675 0-4.835 2.17-4.835 4.853v2.565c0 2.678 2.165 4.853 4.835 4.853H50.49c.89 0 1.61-.723 1.61-1.615s-.72-1.614-1.61-1.614z" fill="#D9D9D9" fill-rule="nonzero"/><g fill-rule="nonzero" fill="#D1D1D1"><path d="M7.85 4.843h39.17v-.538H7.85M7.85 5.92h39.17v-.538H7.85M7.85 6.996h39.17v-.538H7.85M7.85 8.072h39.17v-.538H7.85"/></g><g><path fill="#FFF" d="M53.063 21.957H3.288v-8.395h49.775z"/><path d="M2.218 13.992h48.27c1.185 0 2.148.966 2.148 2.15v3.235c0 1.19-.954 2.15-2.148 2.15H2.218c-.592 0-1.073.48-1.073 1.076 0 .594.48 1.076 1.073 1.076h48.27c2.38 0 4.294-1.923 4.294-4.303V16.14c0-2.37-1.925-4.3-4.294-4.3H2.218c-.592 0-1.073.48-1.073 1.076 0 .594.48 1.076 1.073 1.076z" fill="#8F8F8F" fill-rule="nonzero"/><path fill="#D1D1D1" fill-rule="nonzero" d="M7.85 16.683h39.155v-.538H7.85M7.85 17.76h39.155v-.54H7.85M7.85 18.835h39.155v-.538H7.85M7.85 19.912h39.155v-.538H7.85"/></g><g><path fill="#FFF" d="M51.855 40.45H3.68V25.845h48.175z"/><path fill="#747474" d="M54.537 39.776h-5.364V25.17h5.364z"/><path d="M2.218 26.786h48.028c2.072 0 3.754 1.687 3.754 3.762V34.4c0 2.08-1.678 3.762-3.754 3.762H2.218c-.888 0-1.61.723-1.61 1.614 0 .892.722 1.615 1.61 1.615h48.028c3.853 0 6.973-3.127 6.973-6.99v-3.852c0-3.858-3.125-6.99-6.974-6.99H2.218c-.888 0-1.61.722-1.61 1.613 0 .893.722 1.616 1.61 1.616z" fill="#CDCDCD" fill-rule="nonzero"/><g fill-rule="nonzero" fill="#D1D1D1"><path d="M7.85 32.828h39.155v-.54H7.85M7.85 33.904h39.155v-.538H7.85M7.85 34.98h39.155v-.538H7.85M7.85 36.056h39.155v-.538H7.85M7.85 37.133h39.155v-.538H7.85M7.85 28.522h39.155v-.538H7.85M7.85 29.6h39.155v-.54H7.85M7.85 30.675h39.155v-.538H7.85M7.85 31.75h39.155v-.537H7.85"/></g></g><g fill="#FFF"><path d="M59.136 13.775v-4.53h1.172c.325 1.353.814 2.32 1.465 2.9.65.58 1.354.87 2.11.87.56 0 1.005-.167 1.337-.5.332-.33.498-.722.498-1.17 0-.32-.104-.64-.313-.958-.208-.32-.703-.674-1.484-1.065-1.503-.748-2.52-1.297-3.046-1.645-.527-.35-.95-.796-1.27-1.343-.318-.547-.478-1.175-.478-1.885 0-1.14.41-2.08 1.226-2.818.817-.74 1.762-1.11 2.837-1.11 1.125 0 2.082.38 2.87 1.134.13-.195.237-.495.322-.898h1.123v3.906H66.41c-.194-.866-.565-1.58-1.112-2.14-.547-.56-1.162-.838-1.846-.838-.514 0-.923.143-1.225.43-.303.286-.454.644-.454 1.073 0 .33.097.64.293.922.195.284.46.518.79.703.333.186 1.036.53 2.11 1.03.963.456 1.676.863 2.14 1.22.46.36.827.81 1.097 1.354.27.543.406 1.13.406 1.762 0 1.172-.434 2.146-1.3 2.924-.866.778-1.898 1.167-3.096 1.167-.684 0-1.353-.143-2.007-.43-.654-.286-1.177-.667-1.567-1.142-.15.294-.26.652-.332 1.075h-1.172zM74.75 8.61v3.076c0 .488.078.823.234 1.005.157.184.485.275.987.275V14h-5.888v-1.035h.254c.56 0 .91-.096 1.055-.288.144-.192.215-.523.215-.99V8.95c0-.494-.078-.834-.234-1.02-.155-.185-.523-.278-1.102-.278V6.617l4.316-.713c.11.287.166.71.166 1.27.443-.5.946-.876 1.51-1.123.562-.247 1.182-.37 1.86-.37.74 0 1.352.14 1.83.424.48.284.825.712 1.04 1.285.41-.574.892-1.002 1.446-1.286.553-.283 1.18-.424 1.884-.424.58 0 1.107.105 1.582.317.476.212.837.475 1.084.79.248.317.412.633.493.948.08.316.122.773.122 1.372v2.58c0 .506.083.847.25 1.02.165.172.557.258 1.175.258V14h-5.78v-1.035c.5 0 .824-.095.97-.283.147-.19.22-.52.22-.996V8.883c0-.547-.1-.957-.302-1.23-.202-.274-.508-.41-.918-.41-.384 0-.746.113-1.084.34-.34.23-.654.57-.947 1.026v3.076c0 .48.078.815.234 1 .156.186.485.28.986.28V14H76.85v-1.035c.48-.007.797-.1.947-.283.15-.183.224-.515.224-.996V8.902c0-.54-.098-.945-.296-1.215-.2-.27-.5-.406-.904-.406-.35 0-.7.112-1.045.333-.345.222-.686.554-1.025.996zm21.14 4.54c-.474.345-.97.604-1.488.777-.517.172-1.06.26-1.626.26-.748 0-1.31-.17-1.684-.51-.375-.338-.562-.758-.562-1.26 0-.71.375-1.337 1.123-1.884.75-.547 2.103-1.152 4.063-1.816v-.723c0-.514-.124-.845-.37-.99-.25-.148-.542-.22-.88-.22-.82 0-1.276.3-1.367.898-.067.41-.197.708-.392.893-.195.186-.498.28-.908.28-.37 0-.666-.1-.884-.3-.218-.198-.327-.43-.327-.698 0-.605.4-1.12 1.2-1.543.8-.423 1.872-.634 3.213-.634.75 0 1.375.045 1.88.136.504.092.91.26 1.22.508.31.248.515.508.616.78.1.275.15.646.15 1.115v3.71c0 .56.17.84.508.84.293 0 .478-.183.556-.547h.81c-.02.67-.264 1.165-.736 1.484-.472.32-1.037.48-1.695.48-1.198 0-2.005-.347-2.422-1.037zm-.174-1.054V9.81c-.905.378-1.496.72-1.773 1.026-.276.306-.415.622-.415.947 0 .248.082.47.244.67.163.198.378.297.645.297.234 0 .46-.055.674-.166.216-.11.424-.273.626-.488zm10.497-4.405c.377-.67.807-1.172 1.29-1.507.48-.336 1.01-.503 1.59-.503.554 0 .974.174 1.26.522.287.348.43.728.43 1.138 0 .384-.114.713-.342.986-.227.274-.546.41-.956.41-.22 0-.403-.042-.547-.127-.143-.085-.332-.26-.566-.528-.233-.26-.487-.39-.76-.39-.424 0-.74.258-.953.776-.212.517-.317 1.294-.317 2.33v.868c0 .482.074.82.224 1.01.15.193.495.29 1.035.29h.195V14h-5.928v-1.035c.566 0 .924-.095 1.074-.283.15-.19.226-.528.226-1.016V8.873c0-.495-.077-.835-.23-1.02-.153-.186-.516-.28-1.09-.28V6.54l4.054-.86c.182.527.287 1.198.313 2.01zm9.813-.633v4.17c0 .696.046 1.157.137 1.38.09.226.28.338.566.338.43 0 .774-.267 1.034-.8l.957.322c-.493 1.237-1.55 1.855-3.172 1.855-.892 0-1.563-.216-2.012-.65-.45-.432-.674-1.082-.674-1.947V7.057H111.7V6.002l.244.01c.788 0 1.462-.25 2.02-.752.56-.502.9-1.14 1.017-1.914h1.046v2.656h2.402v1.055h-2.402zm9.793 6.718v-4.53h1.17c.326 1.353.814 2.32 1.466 2.9.65.58 1.354.87 2.11.87.56 0 1.005-.167 1.337-.5.332-.33.498-.722.498-1.17 0-.32-.103-.64-.312-.958-.208-.32-.703-.674-1.484-1.065-1.504-.748-2.52-1.297-3.047-1.645-.527-.35-.95-.796-1.27-1.343-.318-.547-.478-1.175-.478-1.885 0-1.14.408-2.08 1.225-2.818.817-.74 1.762-1.11 2.837-1.11 1.126 0 2.083.38 2.87 1.134.13-.195.238-.495.323-.898h1.123v3.906h-1.094c-.195-.866-.566-1.58-1.113-2.14-.546-.56-1.16-.838-1.845-.838-.514 0-.923.143-1.225.43-.303.286-.454.644-.454 1.073 0 .33.097.64.292.922.196.284.46.518.79.703.334.186 1.037.53 2.11 1.03.964.456 1.677.863 2.14 1.22.462.36.828.81 1.098 1.354.27.543.405 1.13.405 1.762 0 1.172-.43 2.146-1.297 2.924-.866.778-1.898 1.167-3.096 1.167-.684 0-1.353-.143-2.007-.43-.654-.286-1.177-.667-1.567-1.142-.15.294-.26.652-.332 1.075h-1.17zm15.418-6.718v4.17c0 .696.045 1.157.136 1.38.09.226.28.338.567.338.43 0 .775-.267 1.036-.8l.957.322c-.495 1.237-1.553 1.855-3.174 1.855-.893 0-1.563-.216-2.013-.65-.45-.432-.673-1.082-.673-1.947V7.057h-1.163V6.002l.246.01c.787 0 1.46-.25 2.02-.752s.9-1.14 1.017-1.914h1.045v2.656h2.402v1.055h-2.402zm9.46 6.093c-.474.345-.97.604-1.488.777-.517.172-1.06.26-1.626.26-.75 0-1.31-.17-1.684-.51-.375-.338-.562-.758-.562-1.26 0-.71.374-1.337 1.123-1.884.75-.547 2.104-1.152 4.064-1.816v-.723c0-.514-.124-.845-.37-.99-.25-.148-.542-.22-.88-.22-.82 0-1.276.3-1.368.898-.065.41-.195.708-.39.893-.195.186-.498.28-.908.28-.37 0-.666-.1-.884-.3-.218-.198-.327-.43-.327-.698 0-.605.4-1.12 1.2-1.543.802-.423 1.873-.634 3.214-.634.75 0 1.376.045 1.88.136.505.092.912.26 1.22.508.31.248.516.508.617.78.1.275.15.646.15 1.115v3.71c0 .56.17.84.51.84.292 0 .477-.183.555-.547h.81c-.02.67-.264 1.165-.736 1.484-.472.32-1.037.48-1.695.48-1.197 0-2.004-.347-2.42-1.037zm-.174-1.054V9.81c-.905.378-1.496.72-1.773 1.026-.276.306-.414.622-.414.947 0 .248.082.47.244.67.163.198.378.297.645.297.234 0 .46-.055.674-.166.213-.11.422-.273.624-.488zM161.02 7.69c.378-.67.808-1.172 1.29-1.507.48-.336 1.012-.503 1.59-.503.555 0 .975.174 1.26.522.288.348.43.728.43 1.138 0 .384-.113.713-.34.986-.23.274-.548.41-.958.41-.22 0-.404-.042-.547-.127-.143-.085-.332-.26-.566-.528-.236-.26-.49-.39-.763-.39-.423 0-.74.258-.952.776-.212.517-.317 1.294-.317 2.33v.868c0 .482.074.82.224 1.01.15.193.495.29 1.035.29h.196V14h-5.928v-1.035c.566 0 .924-.095 1.074-.283.15-.19.224-.528.224-1.016V8.873c0-.495-.077-.835-.23-1.02-.153-.186-.516-.28-1.09-.28V6.54l4.054-.86c.182.527.287 1.198.313 2.01zm9.814-.633v4.17c0 .696.046 1.157.137 1.38.092.226.28.338.567.338.43 0 .775-.267 1.035-.8l.957.322c-.495 1.237-1.553 1.855-3.175 1.855-.89 0-1.562-.216-2.01-.65-.45-.432-.675-1.082-.675-1.947V7.057h-1.162V6.002l.244.01c.788 0 1.462-.25 2.02-.752.56-.502.9-1.14 1.017-1.914h1.044v2.656h2.402v1.055h-2.402zM67.278 19.497h-1.893c-1.13 0-1.96.122-2.49.365-.53.244-.977.728-1.336 1.453-.36.725-.58 1.585-.657 2.58h-1.876V17.49h22.528v6.408H79.68c-.355-1.726-.853-2.89-1.495-3.494-.642-.603-1.666-.905-3.07-.905H73.17V35.4c0 1.03.176 1.747.524 2.15.35.405 1.082.607 2.2.607h.58V40H64.042v-1.843h.532c1.13 0 1.862-.207 2.2-.622.337-.415.506-1.126.506-2.134V19.498zm25.88 18.644c-.72.798-1.497 1.398-2.333 1.802-.835.404-1.735.606-2.697.606-1.23 0-2.344-.343-3.346-1.03-1-.686-1.502-1.997-1.502-3.934V30.37c0-.85-.136-1.432-.407-1.742-.27-.31-.822-.465-1.652-.465v-1.76h7.422v8.882c0 .863.133 1.483.4 1.86.264.376.685.564 1.26.564.432 0 .886-.178 1.362-.532.476-.354.974-.886 1.494-1.594V30.37c0-.83-.13-1.405-.39-1.725-.26-.32-.872-.482-1.835-.482v-1.76h7.604v9.63c0 .84.13 1.42.39 1.734.26.316.883.473 1.868.473V40c-.3-.01-.57-.017-.814-.017-2.035 0-4.31.19-6.822.565V38.14zm16.98-9.944v7.09c0 1.183.08 1.966.234 2.348.155.382.476.573.963.573.73 0 1.317-.454 1.76-1.36l1.626.547c-.84 2.102-2.638 3.154-5.394 3.154-1.516 0-2.656-.368-3.42-1.104-.764-.736-1.145-1.84-1.145-3.312v-7.936h-1.975v-1.793l.415.017c1.34 0 2.485-.426 3.437-1.278.95-.853 1.527-1.937 1.726-3.254h1.776v4.515h4.083v1.793h-4.084zm6.59 4.964c0-2.28.808-4.067 2.424-5.362 1.616-1.295 3.57-1.943 5.86-1.943 2.236 0 4.184.63 5.844 1.885 1.66 1.256 2.49 3.068 2.49 5.437 0 2.247-.813 4.037-2.44 5.37-1.627 1.334-3.597 2-5.91 2-2.258 0-4.2-.633-5.827-1.9-1.628-1.267-2.442-3.096-2.442-5.487zm5.695-.166c0 2.125.196 3.61.59 4.458.392.846 1.075 1.27 2.05 1.27.785 0 1.413-.354 1.884-1.063.47-.71.705-2.22.705-4.533 0-2.103-.21-3.528-.63-4.275-.42-.747-1.085-1.12-1.993-1.12-.72 0-1.334.318-1.844.954-.51.636-.763 2.072-.763 4.308zm21.348-3.72c.642-1.14 1.373-1.994 2.192-2.564.82-.57 1.72-.855 2.706-.855.94 0 1.655.297 2.142.89.487.59.73 1.235.73 1.933 0 .653-.194 1.212-.58 1.676-.388.465-.93.698-1.628.698-.376 0-.686-.072-.93-.216-.243-.144-.564-.443-.963-.897-.4-.443-.83-.665-1.295-.665-.72 0-1.26.44-1.62 1.32-.36.88-.54 2.2-.54 3.96v1.477c0 .82.13 1.392.383 1.718.255.327.84.49 1.76.49h.332V40h-10.077v-1.76c.963 0 1.57-.16 1.826-.48.254-.322.38-.898.38-1.728v-4.748c0-.84-.13-1.42-.39-1.735-.26-.316-.876-.474-1.85-.474v-1.76l6.89-1.46c.31.896.486 2.036.53 3.42zm11.902-9.18c0-.818.293-1.524.88-2.116.586-.592 1.29-.888 2.108-.888.83 0 1.533.293 2.11.88.574.586.862 1.295.862 2.125 0 .83-.29 1.538-.872 2.125-.58.586-1.28.88-2.1.88-.852 0-1.563-.302-2.133-.905-.57-.603-.855-1.303-.855-2.1zm5.595 5.76v10.178c0 .84.133 1.42.398 1.735.266.316.886.473 1.86.473V40h-10.16v-1.76h.38c.942 0 1.537-.166 1.786-.498.25-.332.374-.902.374-1.71v-4.947c0-.82-.127-1.392-.38-1.718-.256-.327-.848-.49-1.778-.49h-.382v-1.76l7.903-1.262zm12.183 4.816v5.395c0 .775.117 1.33.35 1.66.23.333.647.504 1.244.515V40h-9.297v-1.76c.963 0 1.577-.152 1.843-.456.266-.305.398-.877.398-1.72v-4.647c0-.84-.13-1.42-.39-1.735-.26-.315-.877-.473-1.85-.473v-1.76l7.37-1.213c.19.432.3 1.096.332 1.992.73-.797 1.497-1.392 2.3-1.785.802-.393 1.635-.59 2.498-.59 1.55 0 2.767.43 3.653 1.287.886.858 1.33 2.034 1.33 3.528v5.395c0 .83.134 1.4.405 1.71.272.31.86.465 1.77.465V40h-9.25v-1.76c.466-.022.856-.155 1.172-.398.315-.244.473-.836.473-1.777v-4.98c0-.908-.124-1.527-.374-1.86-.25-.33-.605-.497-1.07-.497-.465 0-.94.16-1.428.48-.487.322-.98.81-1.478 1.462zm18.41 4.482c-1.207-.31-2.145-.89-2.814-1.743-.67-.853-1.005-1.766-1.005-2.74 0-1.56.676-2.748 2.027-3.56 1.35-.815 3.088-1.22 5.213-1.22 1.173 0 2.2.118 3.08.356.88.238 1.612.594 2.2 1.07 1.16-.974 2.135-1.46 2.92-1.46 1.108 0 1.66.536 1.66 1.61 0 .907-.38 1.36-1.145 1.36-.276 0-.658-.204-1.145-.613-.188-.155-.365-.233-.53-.233-.234 0-.488.128-.765.382.42.687.63 1.456.63 2.308 0 1.34-.53 2.48-1.593 3.42-1.073.952-2.983 1.483-5.727 1.594-1.15.044-1.948.166-2.39.365-.444.198-.665.508-.665.93 0 .585.72.878 2.158.878.31 0 1.024-.022 2.142-.066.387-.01.78-.017 1.178-.017 2.413 0 4.156.377 5.23 1.13 1.073.752 1.61 1.964 1.61 3.635 0 1.738-.747 3.152-2.24 4.242-1.495 1.09-3.758 1.635-6.79 1.635-2.88 0-4.843-.365-5.895-1.096-1.05-.73-1.577-1.554-1.577-2.472 0-.576.19-1.046.573-1.41.38-.367.82-.55 1.32-.55.397 0 .868.128 1.41.383-.077.2-.138.39-.183.573-.044.183-.066.352-.066.507 0 .774.388 1.355 1.163 1.743.775.387 1.937.58 3.486.58 1.925 0 3.367-.27 4.324-.813.957-.542 1.436-1.206 1.436-1.992 0-.74-.326-1.212-.98-1.41-.652-.2-2.152-.3-4.498-.3-2.568 0-4.408-.268-5.52-.805-1.113-.537-1.67-1.447-1.67-2.73 0-.897.29-1.636.864-2.217.576-.58 1.434-1 2.574-1.254zm1.344-4.615c0 1.063.17 1.862.507 2.4.338.536.84.804 1.503.804.642 0 1.124-.275 1.445-.83.32-.552.48-1.382.48-2.49 0-.962-.193-1.66-.58-2.09-.387-.433-.852-.648-1.395-.648-.653 0-1.142.238-1.47.714-.325.475-.49 1.19-.49 2.14z"/></g></g></svg>